<svg xmlns="http://www.w3.org/2000/svg" viewBox="0 0 104 24" width="104" height="24" fill="none"><path fill="url(#adguard-logo-gradient)" fill-rule="evenodd" d="M12 2C8.35 2 4.97 3.08 2.15 4.92c-.19 3.36.57 6.83 2.4 10a17.89 17.89 0 0 0 7.43 7.05L12 22l.02-.03c3-1.51 5.62-3.9 7.43-7.06a17.89 17.89 0 0 0 2.4-9.99A17.89 17.89 0 0 0 12 2Z" clip-rule="evenodd"></path><path fill="#fff" fill-rule="evenodd" d="M15.1 9.25c.3.34.3.89 0 1.22l-2.3 2.57c-.8.96-1.3.96-2.12 0l-1.45-1.6a.93.93 0 0 1 0-1.23c.3-.33.79-.34 1.1 0l1.4 1.57 2.28-2.53c.3-.33.8-.33 1.1 0Z" clip-rule="evenodd"></path><path fill="#f6f6f6" d="M97.39 18.3a4.63 4.63 0 0 1-2.66-.72 4.53 4.53 0 0 1-1.56-1.96 7.02 7.02 0 0 1-.52-2.74c0-1.05.19-1.99.56-2.8.37-.83.93-1.47 1.66-1.94a5 5 0 0 1 3.84-.56 3.58 3.58 0 0 1 1.84 1.02V4h2.8v14.16h-2.72l-.04-1.18c-.24.3-.53.56-.88.76-.33.19-.7.33-1.08.42-.39.1-.8.14-1.24.14Zm.56-2.52a2.37 2.37 0 0 0 2.32-1.5c.19-.44.28-.91.28-1.42 0-.52-.1-1-.28-1.42a2.15 2.15 0 0 0-.84-1.04 2.5 2.5 0 0 0-1.48-.4c-.61 0-1.1.14-1.48.42a2.3 2.3 0 0 0-.8 1.1 4.46 4.46 0 0 0-.1 2.5c.1.33.24.63.44.9s.46.48.78.64c.32.15.7.22 1.16.22ZM85.8 18.16V7.62h2.51l.18 1.26c.27-.4.57-.7.9-.9a2.9 2.9 0 0 1 1.04-.42 5.05 5.05 0 0 1 1.58-.1h.32v2.7h-.66c-.62 0-1.17.1-1.64.32-.46.21-.82.55-1.08 1a3.7 3.7 0 0 0-.36 1.74v4.94h-2.8ZM78.17 18.3c-.48 0-.95-.06-1.4-.18a3.66 3.66 0 0 1-1.18-.6 2.85 2.85 0 0 1-1.12-2.4c0-.72.15-1.3.44-1.72.3-.44.69-.77 1.18-1 .5-.23 1.06-.38 1.7-.46.65-.08 1.33-.12 2.02-.12h1.52c0-.39-.07-.73-.22-1.02-.13-.3-.34-.54-.62-.7a2.02 2.02 0 0 0-1.08-.26c-.28 0-.55.04-.82.12-.25.07-.47.17-.64.3a.92.92 0 0 0-.34.52h-2.84c.08-.59.27-1.09.56-1.5.3-.43.66-.77 1.1-1.04.44-.27.92-.46 1.44-.58.53-.13 1.08-.2 1.64-.2 1.53 0 2.67.44 3.4 1.32.73.87 1.1 2.1 1.1 3.7v5.68h-2.52l-.04-1.36c-.33.47-.71.8-1.14 1.02-.41.21-.81.35-1.2.4-.39.05-.7.08-.94.08Zm.64-2.22c.47 0 .9-.1 1.28-.28.39-.19.7-.44.92-.76.23-.32.34-.68.34-1.08v-.26h-1.92c-.28 0-.55.01-.82.04-.25.03-.49.08-.7.16a.96.96 0 0 0-.48.34c-.12.16-.18.37-.18.64s.07.5.2.68c.15.17.34.3.58.4.24.08.5.12.78.12ZM68.3 18.3c-1.54 0-2.73-.4-3.57-1.18-.83-.8-1.24-2-1.24-3.6v-5.9h2.8v5.7c0 .48.06.9.2 1.28.14.36.36.65.66.86.3.21.7.32 1.18.32.52 0 .92-.11 1.2-.34.28-.23.47-.53.58-.9.1-.39.16-.8.16-1.22v-5.7h2.78v5.9c0 1.67-.42 2.88-1.26 3.64a4.95 4.95 0 0 1-3.48 1.14ZM56.5 23.04a6.3 6.3 0 0 1-2.27-.4 4.16 4.16 0 0 1-1.76-1.22 4.62 4.62 0 0 1-.98-2.16h2.86c.1.27.24.49.44.66.21.19.46.33.76.42.3.1.62.14.96.14.62 0 1.11-.13 1.46-.4.34-.27.58-.62.72-1.06.13-.43.2-.9.2-1.42v-.74c-.24.39-.54.68-.9.88a4.77 4.77 0 0 1-2.26.56c-1.1 0-2-.25-2.7-.74-.7-.5-1.2-1.14-1.52-1.94a7.1 7.1 0 0 1-.48-2.62c0-1.03.18-1.96.54-2.8.36-.84.9-1.5 1.62-2 .72-.5 1.62-.74 2.7-.74.65 0 1.23.1 1.74.32.5.2.94.5 1.3.9l.24-1.06h2.56v9.2a9.7 9.7 0 0 1-.5 3.3 4.18 4.18 0 0 1-1.66 2.16c-.76.5-1.78.76-3.06.76Zm-.15-7.26c.58 0 1.06-.13 1.44-.4.38-.27.67-.62.86-1.06.18-.45.28-.94.28-1.46 0-.55-.1-1.03-.28-1.46a2.32 2.32 0 0 0-2.28-1.44 2.32 2.32 0 0 0-2.32 1.58 4.4 4.4 0 0 0 .02 2.82c.16.43.42.77.8 1.04.37.25.86.38 1.48.38ZM43.67 18.3a4.63 4.63 0 0 1-2.66-.72 4.53 4.53 0 0 1-1.56-1.96 7.02 7.02 0 0 1-.52-2.74c0-1.05.19-1.99.56-2.8.37-.83.93-1.47 1.66-1.94a5 5 0 0 1 3.84-.56 3.59 3.59 0 0 1 1.84 1.02V4h2.8v14.16h-2.72l-.04-1.18c-.24.3-.53.56-.88.76-.33.19-.7.33-1.08.42-.39.1-.8.14-1.24.14Zm.56-2.52a2.37 2.37 0 0 0 2.32-1.5c.19-.44.28-.91.28-1.42 0-.52-.1-1-.28-1.42a2.16 2.16 0 0 0-.84-1.04 2.5 2.5 0 0 0-1.48-.4c-.61 0-1.1.14-1.48.42a2.3 2.3 0 0 0-.8 1.1 4.46 4.46 0 0 0-.1 2.5c.1.33.24.63.44.9s.46.48.78.64c.32.15.7.22 1.16.22ZM31.7 18.3c-.48 0-.95-.06-1.4-.18a3.66 3.66 0 0 1-1.18-.6 2.85 2.85 0 0 1-1.12-2.4c0-.72.15-1.3.44-1.72.3-.44.69-.77 1.18-1 .5-.23 1.06-.38 1.7-.46.65-.08 1.33-.12 2.02-.12h1.52c0-.39-.07-.73-.22-1.02-.13-.3-.34-.54-.62-.7a2.02 2.02 0 0 0-1.08-.26c-.28 0-.55.04-.82.12-.25.07-.47.17-.64.3a.92.92 0 0 0-.34.52H28.3c.08-.59.27-1.09.56-1.5.3-.43.66-.77 1.1-1.04.44-.27.92-.46 1.44-.58.53-.13 1.08-.2 1.64-.2 1.53 0 2.67.44 3.4 1.32.73.87 1.1 2.1 1.1 3.7v5.68h-2.52l-.04-1.36c-.33.47-.71.8-1.14 1.02-.41.21-.81.35-1.2.4-.39.05-.7.08-.94.08Zm.64-2.22c.47 0 .9-.1 1.28-.28.39-.19.7-.44.92-.76.23-.32.34-.68.34-1.08v-.26h-1.92c-.28 0-.55.01-.82.04-.25.03-.49.08-.7.16a.96.96 0 0 0-.48.34c-.12.16-.18.37-.18.64s.07.5.2.68c.15.17.34.3.58.4.24.08.5.12.78.12Z"></path><defs><linearGradient id="adguard-logo-gradient" x1="12" x2="12" y1="2" y2="22" gradientUnits="userSpaceOnUse"><stop stop-color="#67B279"></stop><stop offset="1" stop-color="#589968"></stop></linearGradient></defs></svg>